<mxfile host="app.diagrams.net" modified="2023-07-31T10:00:56.260Z" agent="Mozilla/5.0 (Windows NT 10.0; Win64; x64) AppleWebKit/537.36 (KHTML, like Gecko) Chrome/115.0.0.0 Safari/537.36 Edg/115.0.1901.183" etag="WjPhDPBCspAqLzEXVm_Q" version="21.6.5" type="github">
  <diagram name="第 1 页" id="xgpbfh6IBBTUFTHP0Z3c">
    <mxGraphModel dx="1313" dy="794" grid="1" gridSize="10" guides="1" tooltips="1" connect="1" arrows="1" fold="1" page="1" pageScale="1" pageWidth="827" pageHeight="1169" math="0" shadow="0">
      <root>
        <mxCell id="0" />
        <mxCell id="1" parent="0" />
        <mxCell id="L_WMRafkq9bvsYuImRRo-4" value="" style="rhombus;whiteSpace=wrap;html=1;strokeWidth=2;fillWeight=-1;hachureGap=8;fillStyle=cross-hatch;fillColor=#006600;sketch=1;" vertex="1" parent="1">
          <mxGeometry x="109" y="120" width="318.75" height="135" as="geometry" />
        </mxCell>
        <mxCell id="L_WMRafkq9bvsYuImRRo-5" value="" style="rounded=1;whiteSpace=wrap;html=1;strokeWidth=2;fillWeight=4;hachureGap=8;hachureAngle=45;fillColor=#1ba1e2;sketch=1;" vertex="1" parent="1">
          <mxGeometry x="680" y="260" width="240" height="55" as="geometry" />
        </mxCell>
        <mxCell id="L_WMRafkq9bvsYuImRRo-6" value="" style="ellipse;whiteSpace=wrap;html=1;strokeWidth=2;fillWeight=2;hachureGap=8;fillColor=#990000;fillStyle=dots;sketch=1;" vertex="1" parent="1">
          <mxGeometry x="220" y="340" width="120" height="60" as="geometry" />
        </mxCell>
        <mxCell id="L_WMRafkq9bvsYuImRRo-51" value="" style="group" vertex="1" connectable="0" parent="1">
          <mxGeometry x="180" y="60" width="697" height="370" as="geometry" />
        </mxCell>
        <mxCell id="L_WMRafkq9bvsYuImRRo-50" value="&lt;h1&gt;&lt;font color=&quot;#330000&quot;&gt;&lt;font face=&quot;Comic Sans MS&quot; style=&quot;font-size: 120px;&quot;&gt;开发&lt;/font&gt;&lt;font face=&quot;Comic Sans MS&quot; style=&quot;font-size: 120px;&quot;&gt;平台&lt;/font&gt;&lt;/font&gt;&lt;/h1&gt;&lt;div&gt;&lt;font color=&quot;#330000&quot; style=&quot;font-size: 80px;&quot; face=&quot;Comic Sans MS&quot;&gt;&lt;font style=&quot;font-size: 80px;&quot;&gt;Inno&lt;/font&gt;&lt;font style=&quot;font-size: 80px;&quot;&gt;vation&lt;/font&gt;&lt;/font&gt;&lt;/div&gt;" style="text;html=1;strokeColor=none;fillColor=none;align=center;verticalAlign=middle;whiteSpace=wrap;rounded=0;imageWidth=24;shadow=0;labelBorderColor=none;labelBackgroundColor=none;" vertex="1" parent="L_WMRafkq9bvsYuImRRo-51">
          <mxGeometry x="7" width="690" height="370" as="geometry" />
        </mxCell>
        <mxCell id="L_WMRafkq9bvsYuImRRo-1" value="&lt;h1&gt;&lt;font face=&quot;Comic Sans MS&quot; style=&quot;color: rgb(0, 127, 255); font-size: 120px;&quot;&gt;开发&lt;/font&gt;&lt;font color=&quot;#ff6666&quot; face=&quot;Comic Sans MS&quot; style=&quot;font-size: 120px;&quot;&gt;平台&lt;/font&gt;&lt;/h1&gt;&lt;div&gt;&lt;font style=&quot;font-size: 80px;&quot; face=&quot;Comic Sans MS&quot;&gt;&lt;span style=&quot;&quot;&gt;&lt;font style=&quot;font-size: 80px;&quot; color=&quot;#ff6666&quot;&gt;Inno&lt;/font&gt;&lt;font style=&quot;font-size: 80px;&quot; color=&quot;#007fff&quot;&gt;vation&lt;/font&gt;&lt;/span&gt;&lt;/font&gt;&lt;/div&gt;" style="text;html=1;strokeColor=none;fillColor=none;align=center;verticalAlign=middle;whiteSpace=wrap;rounded=0;imageWidth=24;shadow=0;labelBorderColor=none;labelBackgroundColor=none;" vertex="1" parent="L_WMRafkq9bvsYuImRRo-51">
          <mxGeometry width="690" height="370" as="geometry" />
        </mxCell>
      </root>
    </mxGraphModel>
  </diagram>
</mxfile>
